<svg width="18" height="18" viewBox="0 0 18 18" fill="none" xmlns="http://www.w3.org/2000/svg">
<path d="M13.166 2.49967H16.4993C16.7204 2.49967 16.9323 2.58747 17.0886 2.74375C17.2449 2.90003 17.3327 3.11199 17.3327 3.33301V16.6663C17.3327 16.8874 17.2449 17.0993 17.0886 17.2556C16.9323 17.4119 16.7204 17.4997 16.4993 17.4997H1.49935C1.27834 17.4997 1.06637 17.4119 0.910093 17.2556C0.753813 17.0993 0.666016 16.8874 0.666016 16.6663V3.33301C0.666016 3.11199 0.753813 2.90003 0.910093 2.74375C1.06637 2.58747 1.27834 2.49967 1.49935 2.49967H4.83268V0.833008H6.49935V2.49967H11.4993V0.833008H13.166V2.49967ZM15.666 9.16634H2.33268V15.833H15.666V9.16634ZM11.4993 4.16634H6.49935V5.83301H4.83268V4.16634H2.33268V7.49967H15.666V4.16634H13.166V5.83301H11.4993V4.16634ZM3.99935 10.833H5.66602V12.4997H3.99935V10.833ZM8.16602 10.833H9.83268V12.4997H8.16602V10.833ZM12.3327 10.833H13.9993V12.4997H12.3327V10.833Z" fill="#69645E"/>
</svg>
