<svg width="19" height="19" viewBox="0 0 19 19" fill="none" xmlns="http://www.w3.org/2000/svg">
<path d="M14.8327 5.83301L18.9994 5.833L18.9994 7.49967L14.8327 7.49967L14.8327 5.83301ZM13.166 9.99967L18.9994 9.99967L18.9994 11.6663L13.166 11.6663L13.166 9.99967ZM15.666 14.1663L18.9994 14.1663L18.9994 15.833L15.666 15.833L15.666 14.1663ZM0.666019 18.333C0.666018 16.5649 1.3684 14.8692 2.61864 13.619C3.86888 12.3687 5.56457 11.6663 7.33268 11.6663C9.10079 11.6663 10.7965 12.3687 12.0467 13.619C13.297 14.8692 13.9994 16.5649 13.9994 18.333L12.3327 18.333C12.3327 17.0069 11.8059 15.7352 10.8682 14.7975C9.93054 13.8598 8.65877 13.333 7.33268 13.333C6.0066 13.333 4.73483 13.8598 3.79715 14.7975C2.85947 15.7352 2.33269 17.0069 2.33269 18.333L0.666019 18.333ZM7.33268 10.833C4.57018 10.833 2.33268 8.59551 2.33268 5.83301C2.33268 3.07051 4.57018 0.833007 7.33268 0.833007C10.0952 0.833006 12.3327 3.07051 12.3327 5.83301C12.3327 8.59551 10.0952 10.833 7.33268 10.833ZM7.33268 9.16634C9.17435 9.16634 10.666 7.67467 10.666 5.83301C10.666 3.99134 9.17435 2.49967 7.33268 2.49967C5.49102 2.49967 3.99935 3.99134 3.99935 5.83301C3.99935 7.67467 5.49102 9.16634 7.33268 9.16634Z" fill="#69645E"/>
</svg>
