<?xml version="1.0" standalone="no"?>
<!DOCTYPE svg PUBLIC "-//W3C//DTD SVG 20010904//EN"
 "http://www.w3.org/TR/2001/REC-SVG-20010904/DTD/svg10.dtd">
<svg version="1.0" xmlns="http://www.w3.org/2000/svg"
 width="976.000000pt" height="976.000000pt" viewBox="0 0 976.000000 976.000000"
 preserveAspectRatio="xMidYMid meet">
<metadata>
Created by potrace 1.14, written by Peter Selinger 2001-2017
</metadata>
<g transform="translate(0.000000,976.000000) scale(0.100000,-0.100000)"
fill="#000000" stroke="none">
<path d="M4630 9674 c-25 -2 -101 -8 -170 -14 -895 -76 -1779 -409 -2503 -943
-363 -267 -732 -634 -1009 -1003 -631 -838 -973 -1908 -945 -2954 33 -1234
520 -2372 1387 -3240 812 -814 1866 -1303 3065 -1422 194 -19 711 -16 905 5
533 59 922 156 1430 357 186 73 523 249 735 382 1179 745 1978 1966 2179 3333
43 296 51 405 50 730 0 331 -12 480 -60 775 -140 867 -496 1640 -1057 2299
-50 58 -161 176 -246 261 -673 669 -1581 1153 -2511 1339 -327 66 -575 91
-925 96 -154 1 -300 1 -325 -1z m135 -1004 c760 -40 1447 -264 2060 -673 437
-292 812 -665 1118 -1112 706 -1033 901 -2202 563 -3371 -118 -408 -308 -807
-552 -1159 -577 -831 -1433 -1414 -2417 -1645 -76 -18 -139 -31 -141 -29 -2 2
-24 67 -49 144 -230 701 -335 1234 -325 1647 3 140 4 146 32 188 85 128 290
300 359 300 23 0 31 7 44 37 32 78 -4 180 -78 222 -24 13 -27 11 -83 -47 -57
-60 -177 -134 -192 -119 -11 10 49 164 112 287 165 325 429 610 662 714 l42
19 28 -26 c104 -99 304 -107 446 -17 l46 30 40 -29 c56 -40 116 -54 212 -49
67 3 96 11 150 36 90 44 162 122 186 203 15 52 20 59 37 54 167 -49 349 -9
468 104 104 98 140 229 99 358 l-19 61 43 30 c53 38 107 109 136 182 31 78 31
230 -1 313 -29 73 -89 149 -144 182 l-44 25 10 50 c21 106 -27 232 -127 334
-103 104 -238 166 -370 169 -58 2 -64 4 -94 38 l-32 36 21 59 c27 76 37 249
19 347 -40 223 -150 396 -302 472 -39 19 -79 35 -90 35 -13 0 -24 12 -34 38
-50 131 -118 217 -230 291 -164 110 -393 139 -556 69 l-47 -20 -40 31 c-22 18
-70 46 -108 64 -64 30 -75 32 -178 32 -101 0 -115 -2 -168 -28 -35 -18 -75
-49 -104 -81 l-46 -53 -43 32 c-71 54 -145 78 -262 83 -124 5 -212 -13 -319
-65 -86 -42 -184 -128 -223 -196 l-29 -51 -108 3 c-128 3 -214 -14 -306 -60
-157 -80 -269 -208 -321 -367 l-18 -52 -51 45 c-105 93 -235 132 -374 115 -65
-9 -158 -36 -202 -60 -12 -6 -74 -12 -139 -14 -134 -3 -205 -24 -306 -91 -93
-62 -186 -207 -186 -293 0 -15 -4 -32 -8 -37 -4 -6 -48 -11 -102 -11 -169 -1
-280 -44 -386 -149 -75 -74 -123 -164 -148 -277 -4 -18 -13 -28 -24 -28 -31 0
-112 -61 -152 -114 -141 -190 -173 -465 -73 -648 55 -101 151 -183 261 -224
26 -10 48 -19 50 -20 2 -1 -10 -26 -27 -55 -102 -182 -73 -414 70 -557 84 -84
197 -123 301 -105 l55 9 24 -45 c36 -70 119 -145 202 -184 97 -46 151 -58 265
-58 143 0 254 34 353 106 l48 36 20 -38 c42 -83 144 -153 276 -188 89 -25 263
-22 360 4 77 22 168 62 180 81 16 25 35 3 75 -87 183 -415 279 -964 280 -1598
0 -537 -71 -1040 -207 -1447 -50 -152 -42 -145 -149 -124 -1110 219 -2119 940
-2703 1932 -393 669 -591 1471 -551 2241 38 717 265 1405 663 2003 295 444
696 841 1145 1138 609 402 1320 636 2044 671 84 5 162 9 173 9 11 1 106 -3
210 -8z m361 -4119 c34 -11 98 -25 142 -32 77 -12 81 -14 76 -35 -9 -36 14
-90 52 -123 27 -24 34 -38 34 -66 0 -40 12 -68 42 -102 l20 -21 -89 -74 c-260
-216 -489 -363 -536 -345 -8 3 -17 17 -19 31 -8 40 10 212 51 488 l37 253 54
22 c67 27 61 27 136 4z m-548 -56 c7 -6 -52 -282 -76 -355 -39 -114 -64 -161
-107 -198 -44 -40 -60 -40 -117 -2 -41 27 -186 186 -177 194 2 2 29 11 59 19
72 21 167 83 213 139 41 50 84 137 93 188 10 62 9 61 61 38 26 -11 49 -22 51
-23z"/>
</g>
</svg>
