<svg width="20" height="20" viewBox="0 0 20 20" fill="none" xmlns="http://www.w3.org/2000/svg">
<path d="M14.166 4.99984H18.3327V6.6665H16.666V17.4998C16.666 17.7209 16.5782 17.9328 16.4219 18.0891C16.2657 18.2454 16.0537 18.3332 15.8327 18.3332H4.16602C3.945 18.3332 3.73304 18.2454 3.57676 18.0891C3.42048 17.9328 3.33268 17.7209 3.33268 17.4998V6.6665H1.66602V4.99984H5.83268V2.49984C5.83268 2.27882 5.92048 2.06686 6.07676 1.91058C6.23304 1.7543 6.445 1.6665 6.66602 1.6665H13.3327C13.5537 1.6665 13.7657 1.7543 13.9219 1.91058C14.0782 2.06686 14.166 2.27882 14.166 2.49984V4.99984ZM14.9993 6.6665H4.99935V16.6665H14.9993V6.6665ZM11.1777 11.6665L12.651 13.1398L11.4727 14.3182L9.99935 12.8448L8.52602 14.3182L7.34768 13.1398L8.82102 11.6665L7.34768 10.1932L8.52602 9.01484L9.99935 10.4882L11.4727 9.01484L12.651 10.1932L11.1777 11.6665ZM7.49935 3.33317V4.99984H12.4993V3.33317H7.49935Z" fill="#B0B0B0"/>
</svg>
