<svg width="230" height="60" viewBox="0 0 230 60" fill="none" xmlns="http://www.w3.org/2000/svg">
<g clip-path="url(#clip0_100_407)">
<path d="M198.702 48.6992L198.243 20.5757L208.116 20.4234L208.084 18.3239L185.874 18.6703C185.19 18.6605 184.51 18.7835 183.874 19.0325C183.406 19.2192 182.989 19.5124 182.658 19.8881C182.366 20.2335 182.162 20.6417 182.061 21.0795C181.959 21.5308 181.912 21.9925 181.922 22.4548L181.986 26.4072H183.399C183.367 24.3076 183.831 22.8747 184.797 22.0348C185.91 21.1476 187.313 20.6887 188.744 20.7436L192.099 20.6911L192.552 50.7672C191.236 51.1732 189.903 51.5563 188.552 51.9167C179.89 54.2472 170.951 56.0686 163.297 54.431V36.8682H167.788C168.257 36.8682 168.854 36.8367 169.606 36.7737C171.306 36.6151 172.962 36.1583 174.497 35.4247C175.352 35.0164 176.134 34.474 176.812 33.8186C177.528 33.1199 178.099 32.291 178.492 31.3779C178.94 30.2846 179.156 29.1129 179.127 27.9346C179.158 26.6896 178.943 25.4505 178.492 24.2866C178.099 23.328 177.511 22.4583 176.764 21.7304C176.057 21.0447 175.234 20.4852 174.332 20.077C173.442 19.6771 172.518 19.3573 171.569 19.1217C170.654 18.896 169.721 18.7485 168.78 18.6808C167.862 18.6231 167.062 18.5916 166.369 18.5916H153.376V19.9825H153.845C155.264 19.9825 156.171 20.4129 156.566 21.2633C156.996 22.3345 157.196 23.4819 157.152 24.633V52.1424C153.253 49.9694 149.909 46.4002 147.386 40.8993L137.876 18.5916H135.743L124.163 44.0907C123.022 46.6311 122.12 49.0823 119.23 46.988C118.937 46.6874 118.695 46.3438 118.51 45.9698C117.845 44.6295 117.512 42.6227 117.512 39.9493V18.3291H109.048L95.82 39.9913L80.2029 18.3291H72.3357V47.4499H75.5359V23.4468L92.8545 47.4499H94.9879L109.117 24.3286V39.9493C109.117 43.2701 110.129 45.6811 112.152 47.1823C114.175 48.6834 117.434 49.4323 121.928 49.4288H122.216C124.537 49.4288 125.475 46.4212 126.275 44.7048L128.073 40.7996H140.703L141.797 43.4241C141.839 43.529 141.887 43.6288 141.93 43.7285C147.088 55.9426 160.278 58.7823 169.558 58.7823C193.981 58.7823 219.722 43.1406 230 31.8188C224.096 36.8105 212.639 43.6497 198.702 48.6992ZM163.297 20.7751C163.578 20.7436 163.892 20.6964 164.241 20.6334C164.569 20.5692 164.9 20.5237 165.233 20.4969C165.61 20.4654 165.988 20.4497 166.369 20.4497C167.121 20.45 167.868 20.5597 168.588 20.7751C169.329 20.9993 170.003 21.3995 170.551 21.9404C171.182 22.574 171.666 23.3352 171.969 24.1711C172.362 25.3075 172.542 26.5041 172.503 27.7036C172.541 28.9117 172.361 30.1168 171.969 31.2624C171.668 32.1117 171.176 32.8832 170.529 33.5194C169.949 34.0649 169.242 34.4631 168.47 34.6794C167.711 34.8965 166.925 35.006 166.134 35.0048H163.297V20.7751ZM129.076 38.7263L134.585 26.5909L139.812 38.7263H129.076Z" fill="#69645E"/>
<path d="M59.0705 18.7858C57.5514 14.9476 55.2102 11.4764 52.206 8.60823C49.2033 5.768 45.6595 3.54 41.7787 2.05238C37.953 0.587156 33.8676 -0.107874 29.7641 0.00842998C25.6606 0.124734 21.6226 1.05001 17.889 2.72949C12.4453 5.16518 7.84817 9.12023 4.66799 14.1039C1.48782 19.0875 -0.135403 24.8804 -0.000254581 30.7638C0.1729 38.4629 3.36455 45.7979 8.90703 51.2344C11.6468 53.9032 14.8731 56.04 18.417 57.5331C25.6531 60.6039 33.8107 60.8256 41.208 58.1524C44.987 56.7915 48.4538 54.7057 51.4075 52.0162C54.3611 49.3266 56.7428 46.0868 58.4145 42.4845C60.1083 38.7967 61.0402 34.8144 61.156 30.769C61.2691 26.6785 60.5604 22.6062 59.0705 18.7858ZM34.0288 33.3987C33.9815 33.5889 33.9951 33.7887 34.0676 33.971C34.1402 34.1533 34.2682 34.309 34.4341 34.417C31.6766 36.7422 30.4019 37.3564 30.4019 36.9627C30.1725 36.6793 30.8606 32.9473 30.9352 32.2125C31.1646 32.097 31.3939 32.0445 31.682 31.929C32.2752 32.1387 32.8939 32.2711 33.5221 32.3227C33.4503 32.5318 33.4628 32.76 33.5571 32.9603C33.6514 33.1605 33.8203 33.3175 34.0288 33.3987ZM25.6495 34.6427C26.2864 34.5532 26.8729 34.2518 27.3116 33.7886C27.7502 33.3255 28.0144 32.7285 28.0604 32.097C28.2461 32.2364 28.4611 32.3333 28.6897 32.3804C28.5777 33.173 28.1564 36.0546 27.143 36.0546C26.6683 35.9969 25.9376 34.9839 25.6495 34.6427ZM47.6991 48.484C44.0394 52.4824 39.1667 55.2122 33.8048 56.2681C32.5353 52.4889 31.1486 47.7229 31.5059 44.1379C31.8473 43.5186 33.2821 41.8757 34.0875 41.9911C34.1843 41.8478 34.2468 41.6847 34.2701 41.5141C34.2934 41.3435 34.2769 41.17 34.2219 41.0066C34.1669 40.8432 34.0748 40.6943 33.9527 40.5711C33.8305 40.4479 33.6814 40.3538 33.5167 40.2957C33.148 40.8698 32.579 41.2916 31.9166 41.482C32.6047 39.1095 34.7328 35.9444 37.1437 35.0364C37.8317 36.0546 39.7252 35.8289 40.3439 35.0941C41.5546 36.3381 44.0188 35.3775 44.1362 33.7399C46.4296 34.5272 48.7285 32.6061 47.6937 30.5171C49.5925 29.4673 49.2938 26.6171 47.6404 25.94C48.2698 24.1869 46.0403 22.2081 44.1948 22.4915C44.093 22.3165 43.9549 22.1645 43.7895 22.0454C44.7122 20.1768 43.7895 16.6705 41.4373 16.2716C40.9039 14.0671 38.1091 12.9386 36.1569 13.9568C34.9515 12.8231 33.0527 12.7129 32.1353 14.1825C30.5885 12.6551 27.3723 13.5579 26.6256 15.4265C25.5984 15.2142 24.5275 15.4093 23.6457 15.9695C22.7638 16.5297 22.1422 17.4097 21.9159 18.4184C20.8492 17.1219 19.2171 17.0642 17.7823 17.8568C16.0009 17.5156 14.0487 18.6441 13.9954 20.5704C11.9259 20.287 10.3205 21.3053 9.97377 23.3366C8.08031 23.6778 6.64554 28.5855 10.4325 29.6668C8.8857 31.7033 10.4911 34.7582 12.902 34.0758C13.6487 36.1124 16.8649 36.506 18.4704 34.9839C19.2171 36.905 22.604 36.905 23.8681 35.7712C26.4923 40.5844 26.6256 50.7515 24.3108 56.3521C22.6686 56.0599 21.0605 55.6062 19.5104 54.9979C16.2458 53.7182 13.2831 51.7923 10.8058 49.3396C8.34087 46.8942 6.40013 43.9866 5.09877 40.7891C3.82987 37.5973 3.2136 34.1904 3.28531 30.7638C3.37307 27.3969 4.14835 24.0818 5.56497 21.0158C6.9816 17.9499 9.01061 15.1958 11.5312 12.9176C16.4548 8.43048 22.9867 6.04992 29.6925 6.29873C36.1945 6.5421 42.3455 9.26381 46.8457 13.8886C49.0443 16.1501 50.8338 18.765 52.1367 21.6202C53.457 24.5006 54.196 27.606 54.3129 30.7638C54.5179 37.2896 52.1477 43.6402 47.6991 48.484Z" fill="#C2A561"/>
</g>
<defs>
<clipPath id="clip0_100_407">
<rect width="230" height="60" fill="white"/>
</clipPath>
</defs>
</svg>
