<svg width="192" height="50" viewBox="0 0 192 50" fill="none" xmlns="http://www.w3.org/2000/svg">
<g clip-path="url(#clip0_376_674)">
<path d="M165.873 40.5825L165.49 17.1463L173.731 17.0194L173.705 15.2698L155.165 15.5585C154.593 15.5502 154.026 15.6528 153.495 15.8603C153.104 16.0159 152.756 16.2602 152.48 16.5732C152.236 16.8611 152.065 17.2013 151.981 17.5662C151.896 17.9422 151.857 18.327 151.865 18.7122L151.919 22.0058H153.099C153.072 20.2562 153.459 19.0621 154.265 18.3622C155.194 17.6228 156.365 17.2404 157.56 17.2862L160.361 17.2425L160.739 42.3059C159.641 42.6442 158.528 42.9635 157.4 43.2638C150.169 45.2059 142.706 46.7237 136.317 45.359V30.7234H140.066C140.458 30.7234 140.957 30.6971 141.584 30.6446C143.003 30.5125 144.386 30.1317 145.667 29.5205C146.381 29.1802 147.034 28.7282 147.6 28.182C148.197 27.5998 148.673 26.909 149.002 26.1481C149.376 25.237 149.556 24.2606 149.532 23.2787C149.558 22.2412 149.378 21.2086 149.002 20.2387C148.674 19.4399 148.183 18.7151 147.56 18.1085C146.969 17.5371 146.282 17.0709 145.529 16.7307C144.787 16.3974 144.015 16.131 143.223 15.9346C142.459 15.7465 141.68 15.6236 140.894 15.5672C140.129 15.5191 139.461 15.4929 138.882 15.4929H128.036V16.652H128.427C129.612 16.652 130.369 17.0107 130.698 17.7193C131.057 18.612 131.224 19.5682 131.188 20.5274V43.4519C127.933 41.641 125.141 38.6667 123.035 34.0827L115.097 15.4929H113.316L103.649 36.7421C102.696 38.8591 101.944 40.9018 99.5308 39.1566C99.2869 38.906 99.0841 38.6197 98.9297 38.308C98.3746 37.1912 98.0971 35.5188 98.0971 33.2909V15.2741H91.031L79.9888 33.3259L66.9519 15.2741H60.3845V39.5415H63.056V19.5389L77.5132 39.5415H79.2942L91.0889 20.2737V33.2909C91.0889 36.0583 91.9333 38.0674 93.6223 39.3184C95.3113 40.5694 98.0318 41.1934 101.784 41.1905H102.024C103.961 41.1905 104.745 38.6842 105.412 37.2539L106.913 33.9995H117.456L118.369 36.1866C118.405 36.2741 118.445 36.3572 118.481 36.4403C122.786 46.6187 133.797 48.9851 141.544 48.9851C161.932 48.9851 183.42 35.9504 192 26.5155C187.071 30.6753 177.507 36.3747 165.873 40.5825ZM136.317 17.3125C136.552 17.2862 136.814 17.2469 137.105 17.1944C137.379 17.1409 137.655 17.1029 137.933 17.0806C138.248 17.0544 138.564 17.0413 138.882 17.0413C139.509 17.0416 140.134 17.1329 140.734 17.3125C141.353 17.4993 141.916 17.8328 142.373 18.2835C142.9 18.8116 143.304 19.4459 143.557 20.1425C143.884 21.0894 144.035 22.0867 144.002 23.0862C144.034 24.0929 143.884 25.0972 143.557 26.0519C143.305 26.7596 142.894 27.4025 142.355 27.9327C141.87 28.3873 141.28 28.7191 140.636 28.8994C140.002 29.0803 139.346 29.1716 138.686 29.1706H136.317V17.3125ZM107.75 32.2718L112.349 22.1589L116.713 32.2718H107.75Z" fill="white"/>
<path d="M49.3111 15.6551C48.0429 12.4566 46.0885 9.5639 43.5807 7.17376C41.0741 4.8069 38.1158 2.95023 34.8761 1.71055C31.6825 0.489531 28.2721 -0.0896614 24.8466 0.00725895C21.4211 0.104179 18.0502 0.875242 14.9334 2.2748C10.3891 4.30455 6.55152 7.60042 3.89677 11.7535C1.24202 15.9065 -0.11302 20.7339 -0.000200843 25.6367C0.144346 32.0526 2.80868 38.1651 7.43545 42.6956C9.72259 44.9196 12.4158 46.7003 15.3742 47.9445C21.4148 50.5035 28.2246 50.6882 34.3997 48.4606C37.5543 47.3265 40.4484 45.5883 42.9141 43.347C45.3797 41.1058 47.3679 38.4059 48.7634 35.404C50.1773 32.3309 50.9553 29.0122 51.052 25.6411C51.1464 22.2323 50.5548 18.8387 49.3111 15.6551ZM28.4066 27.8325C28.3672 27.9909 28.3785 28.1575 28.4391 28.3094C28.4997 28.4613 28.6065 28.5911 28.745 28.6811C26.4431 30.6188 25.379 31.1305 25.379 30.8025C25.1875 30.5663 25.7619 27.4563 25.8242 26.8439C26.0157 26.7477 26.2071 26.704 26.4476 26.6077C26.9428 26.7825 27.4592 26.8928 27.9837 26.9358C27.9237 27.11 27.9342 27.3002 28.0129 27.4671C28.0916 27.634 28.2326 27.7648 28.4066 27.8325ZM21.4118 28.8691C21.9435 28.7945 22.4331 28.5434 22.7992 28.1574C23.1654 27.7715 23.386 27.274 23.4243 26.7477C23.5794 26.8639 23.7589 26.9446 23.9497 26.9839C23.8562 27.6444 23.5045 30.0458 22.6585 30.0458C22.2622 29.9977 21.6522 29.1535 21.4118 28.8691ZM39.8184 40.4036C36.7633 43.7355 32.6957 46.0104 28.2196 46.8903C27.16 43.741 26.0023 39.7693 26.3006 36.7818C26.5856 36.2657 27.7833 34.8966 28.4556 34.9928C28.5365 34.8734 28.5886 34.7375 28.6081 34.5953C28.6275 34.4532 28.6138 34.3085 28.5679 34.1724C28.522 34.0362 28.4451 33.9121 28.3431 33.8095C28.2411 33.7069 28.1167 33.6284 27.9792 33.58C27.6714 34.0584 27.1964 34.4099 26.6435 34.5686C27.2178 32.5915 28.9944 29.9539 31.0069 29.1972C31.5813 30.0458 33.1619 29.8577 33.6784 29.2453C34.6891 30.282 36.7461 29.4815 36.8441 28.1168C38.7587 28.7729 40.6777 27.172 39.8139 25.4311C41.399 24.5563 41.1497 22.1812 39.7694 21.6169C40.2948 20.156 38.4336 18.507 36.8931 18.7432C36.8081 18.5973 36.6928 18.4706 36.5547 18.3714C37.325 16.8142 36.5547 13.8923 34.5911 13.5599C34.1459 11.7228 31.8128 10.7824 30.1832 11.6309C29.1769 10.6861 27.5918 10.5943 26.826 11.819C25.5348 10.5462 22.8499 11.2985 22.2266 12.8557C21.3691 12.6787 20.4752 12.8413 19.739 13.3082C19.0029 13.775 18.484 14.5084 18.2951 15.3489C17.4046 14.2685 16.0421 14.2204 14.8444 14.8809C13.3573 14.5966 11.7276 15.537 11.6831 17.1423C9.95555 16.9061 8.61536 17.7546 8.32594 19.4474C6.74531 19.7317 5.54759 23.8215 8.70886 24.7225C7.41764 26.4197 8.75784 28.9654 10.7704 28.3967C11.3937 30.0939 14.0786 30.4219 15.4188 29.1535C16.0421 30.7544 18.8694 30.7544 19.9247 29.8096C22.1153 33.8206 22.2266 42.2932 20.2942 46.9603C18.9234 46.7168 17.5809 46.3387 16.287 45.8318C13.5617 44.7654 11.0885 43.1605 9.02053 41.1165C6.96283 39.0788 5.34273 36.6557 4.25637 33.9912C3.19712 31.3313 2.68267 28.4923 2.74253 25.6367C2.81579 22.831 3.46298 20.0684 4.64555 17.5134C5.82813 14.9585 7.52191 12.6634 9.62607 10.7649C13.7362 7.02564 19.1889 5.04184 24.7868 5.24917C30.2145 5.45198 35.3493 7.72007 39.106 11.5741C40.9414 13.4587 42.4352 15.6378 43.5228 18.0171C44.6249 20.4174 45.2419 23.0052 45.3394 25.6367C45.5106 31.0749 43.532 36.3671 39.8184 40.4036Z" fill="#C2A561"/>
</g>
<defs>
<clipPath id="clip0_376_674">
<rect width="192" height="50" fill="white"/>
</clipPath>
</defs>
</svg>
