<svg width="61" height="60" viewBox="0 0 61 60" fill="none" xmlns="http://www.w3.org/2000/svg">
<path d="M58.9089 18.786C57.3941 14.9486 55.0596 11.4781 52.0641 8.61055C49.0699 5.7709 45.5364 3.54336 41.6667 2.05604C37.852 0.591123 33.7783 -0.103764 29.6866 0.0125168C25.595 0.128797 21.5685 1.05388 17.8456 2.73301C12.4176 5.1682 7.83365 9.12244 4.66261 14.1051C1.49158 19.0877 -0.12698 24.8794 0.00777964 30.7615C0.180437 38.459 3.36291 45.7926 8.88948 51.2279C11.6214 53.8962 14.8384 56.0326 18.3722 57.5253C25.5875 60.5955 33.7216 60.8171 41.0976 58.1445C44.8657 56.7838 48.3226 54.6985 51.2678 52.0095C54.213 49.3206 56.5879 46.0814 58.2547 42.4799C59.9436 38.7928 60.8728 34.8113 60.9883 30.7668C61.1011 26.6771 60.3945 22.6056 58.9089 18.786ZM33.9391 33.3959C33.8919 33.586 33.9055 33.7859 33.9778 33.9681C34.0502 34.1503 34.1778 34.3061 34.3432 34.414C31.5936 36.7388 30.3226 37.3528 30.3226 36.9592C30.0939 36.6758 30.7799 32.9446 30.8544 32.2099C31.0831 32.0945 31.3118 32.042 31.599 31.9265C32.1905 32.1362 32.8074 32.2685 33.4338 32.3201C33.3622 32.5292 33.3747 32.7574 33.4687 32.9576C33.5628 33.1578 33.7311 33.3147 33.9391 33.3959V33.3959ZM25.5839 34.6396C26.2189 34.5501 26.8038 34.2488 27.2411 33.7857C27.6785 33.3227 27.942 32.7258 27.9878 32.0945C28.173 32.2339 28.3874 32.3307 28.6154 32.3778C28.5037 33.1703 28.0835 36.0513 27.073 36.0513C26.5997 35.9936 25.8711 34.9807 25.5839 34.6396ZM47.5701 48.4781C43.9209 52.4756 39.0622 55.2049 33.7157 56.2606C32.4499 52.4822 31.0671 47.7172 31.4235 44.1329C31.7638 43.5137 33.1945 41.8711 33.9976 41.9866C34.0942 41.8433 34.1564 41.6802 34.1797 41.5096C34.2029 41.3391 34.1865 41.1656 34.1316 41.0022C34.0768 40.8389 33.985 40.69 33.8631 40.5668C33.7413 40.4437 33.5927 40.3495 33.4285 40.2915C33.0608 40.8655 32.4935 41.2872 31.833 41.4775C32.519 39.1055 34.6411 35.9411 37.045 35.0332C37.7311 36.0513 39.6191 35.8256 40.236 35.091C41.4433 36.3347 43.9004 35.3743 44.0174 33.737C46.3043 34.5242 48.5965 32.6035 47.5647 30.5149C49.4581 29.4653 49.1603 26.6158 47.5116 25.9388C48.1391 24.186 45.916 22.2076 44.0759 22.491C43.9743 22.316 43.8366 22.164 43.6717 22.0449C44.5918 20.1767 43.6717 16.6712 41.3263 16.2723C40.7944 14.0683 38.0076 12.94 36.0611 13.9581C34.8591 12.8245 32.9658 12.7143 32.051 14.1837C30.5087 12.6566 27.3017 13.5592 26.5571 15.4274C25.5329 15.2151 24.4651 15.4102 23.5858 15.9703C22.7065 16.5304 22.0866 17.4102 21.861 18.4187C20.7973 17.1225 19.1699 17.0648 17.7393 17.8572C15.9629 17.5161 14.0164 18.6443 13.9632 20.5703C11.8997 20.2869 10.2988 21.305 9.95315 23.3359C8.06513 23.677 6.63448 28.5837 10.4105 29.6647C8.8682 31.7009 10.469 34.7551 12.8729 34.0729C13.6175 36.109 16.8245 36.5026 18.4253 34.9808C19.1699 36.9014 22.5471 36.9014 23.8075 35.7679C26.4242 40.5802 26.5571 50.7451 24.249 56.3445C22.6116 56.0524 21.008 55.5988 19.4624 54.9906C16.2072 53.7112 13.2529 51.7857 10.7828 49.3335C8.32494 46.8887 6.38978 43.9816 5.09215 40.7848C3.8269 37.5937 3.2124 34.1875 3.2839 30.7615C3.37142 27.3953 4.14446 24.0809 5.55702 21.0156C6.96957 17.9503 8.99276 15.1968 11.5061 12.919C16.4155 8.43284 22.9287 6.05277 29.6152 6.30152C36.0985 6.54484 42.2319 9.26599 46.7191 13.8898C48.9115 16.1509 50.6958 18.7652 51.995 21.6198C53.3114 24.4997 54.0484 27.6044 54.1649 30.7615C54.3693 37.286 52.0059 43.6353 47.5701 48.4781Z" fill="#C2A561"/>
</svg>
